<svg width="24" height="24" viewBox="0 0 24 24" fill="none" xmlns="http://www.w3.org/2000/svg">
<path d="M15.8533 13.6018L18.1175 15.8671L11.99 22L5.86333 15.868L8.1275 13.6018L11.9908 17.4886L15.8533 13.6018V13.6018ZM19.7175 9.7351L22 12.0004L19.7375 14.2657L17.4733 12.0004L19.7175 9.7351V9.7351ZM11.9908 9.7351L14.2542 11.9804L11.99 14.2465L9.72667 12.0004L11.99 9.73594L11.9908 9.7351ZM4.26333 9.7351L6.50833 12.0004L4.265 14.2457L2 12.0004L4.26333 9.7351V9.7351ZM11.9917 2L18.1183 8.11368L15.8542 10.3782L11.9908 6.51145L8.12833 10.3982L5.86417 8.13287L11.9908 2.00083L11.9917 2Z" fill="white"/>
</svg>
