<svg width="24" height="24" viewBox="0 0 24 24" fill="none" xmlns="http://www.w3.org/2000/svg">
<path d="M9.63362 6.56432C7.75148 8.67663 6.45981 11.7114 6.33987 11.9973L3 10.5676L7.43779 6.13079L9.63362 6.56432ZM11.4604 16.388C11.4604 16.388 14.911 14.9582 16.8946 12.9751C21.8767 7.99405 21.0464 4.10149 20.7788 3.2252C19.9023 2.94848 16.0089 2.12754 11.0268 7.10854C9.04314 9.09172 7.61309 12.5415 7.61309 12.5415L11.4604 16.388ZM17.439 14.3679C15.3262 16.2496 12.2908 17.541 12.0047 17.6609L13.4348 21L17.8726 16.5632L17.439 14.3679V14.3679ZM9.45832 17.3104C9.45832 18.076 9.14463 18.7678 8.64642 19.2659C7.55773 20.3543 3 21 3 21C3 21 3.64583 16.4433 4.73452 15.3549C5.12091 14.9665 5.614 14.7018 6.1512 14.5942C6.68839 14.4866 7.24545 14.541 7.75164 14.7506C8.25783 14.9601 8.69031 15.3153 8.99419 15.7711C9.29806 16.2269 9.45961 16.7626 9.45832 17.3104ZM13.1488 9.0087C13.1488 7.99405 13.9791 7.16388 14.994 7.16388C16.0089 7.16388 16.8393 7.99405 16.8393 9.0087C16.8393 10.0233 16.0089 10.8535 14.994 10.8535C13.9791 10.8535 13.1488 10.0233 13.1488 9.0087Z" fill="white"/>
</svg>
