<svg width="24" height="24" viewBox="0 0 24 24" fill="none" xmlns="http://www.w3.org/2000/svg">
<path d="M21 20C21 20.5523 20.5523 21 20 21H4C3.44772 21 3 20.5523 3 20V20C3 19.4477 3.44772 19 4 19H20C20.5523 19 21 19.4477 21 20V20ZM8 11C8 10.4477 7.55228 10 7 10H5C4.44772 10 4 10.4477 4 11V16C4 16.5523 4.44772 17 5 17H7C7.55228 17 8 16.5523 8 16V11ZM14 7C14 6.44771 13.5523 6 13 6H11C10.4477 6 10 6.44772 10 7V16C10 16.5523 10.4477 17 11 17H13C13.5523 17 14 16.5523 14 16V7ZM20 4C20 3.44772 19.5523 3 19 3H17C16.4477 3 16 3.44772 16 4V16C16 16.5523 16.4477 17 17 17H19C19.5523 17 20 16.5523 20 16V4Z" fill="white"/>
</svg>
